HIERARCHY
ROOT Hips
{
  OFFSET -64.2221 96.4492 51.4515
  CHANNELS 6 Xposition Yposition Zposition Zrotation Xrotation Yrotation
  JOINT ToSpine
  {
    OFFSET -2.69724 7.43032 -0.144315
    CHANNELS 3 Zrotation Xrotation Yrotation
    JOINT Spine
    {
      OFFSET -0.0310711 10.7595 1.96963
      CHANNELS 3 Zrotation Xrotation Yrotation
      JOINT Spine1
      {
        OFFSET 13.1342 3.43533 0.764692
        CHANNELS 3 Zrotation Xrotation Yrotation
        JOINT Neck
        {
          OFFSET 29.8703 7.82586 -0.130764
          CHANNELS 3 Zrotation Xrotation Yrotation
          JOINT Head
          {
            OFFSET 9.52751 0.295786 -0.907742
            CHANNELS 3 Zrotation Xrotation Yrotation
            End Site
            {
              OFFSET 16.4037 0.713936 2.7358
            }
          }
        }
        JOINT LeftShoulder
        {
          OFFSET 27.5574 4.95586 2.47156
          CHANNELS 3 Zrotation Xrotation Yrotation
          JOINT LeftArm
          {
            OFFSET 1.20734 -0.998971 20.1238
            CHANNELS 3 Zrotation Xrotation Yrotation
            JOINT LeftForeArm
            {
              OFFSET 26.8049 -0.0536703 -0.155908
              CHANNELS 3 Zrotation Xrotation Yrotation
              JOINT LeftHand
              {
                OFFSET 26.6817 0 0.320147
                CHANNELS 3 Zrotation Xrotation Yrotation
                End Site
                {
                  OFFSET 18.6119 0 0.382219
                }
              }
            }
          }
        }
        JOINT RightShoulder
        {
          OFFSET 27.5927 4.71444 -2.65209
          CHANNELS 3 Zrotation Xrotation Yrotation
          JOINT RightArm
          {
            OFFSET 2.83739 -1.17114 -18.7564
            CHANNELS 3 Zrotation Xrotation Yrotation
            JOINT RightForeArm
            {
              OFFSET 28.839 -0.0548439 1.22491
              CHANNELS 3 Zrotation Xrotation Yrotation
              JOINT RightHand
              {
                OFFSET 26.5114 0 -0.101894
                CHANNELS 3 Zrotation Xrotation Yrotation
                End Site
                {
                  OFFSET 18.2168 0 0
                }
              }
            }
          }
        }
      }
    }
  }
  JOINT LeftUpLeg
  {
    OFFSET -4.76168 -1.9167 -10.2353
    CHANNELS 3 Zrotation Xrotation Yrotation
    JOINT LeftLeg
    {
      OFFSET 2.55951 -42.0585 -8.02213
      CHANNELS 3 Zrotation Xrotation Yrotation
      JOINT LeftFoot
      {
        OFFSET 3.16357 -42.5282 -3.95426
        CHANNELS 3 Zrotation Xrotation Yrotation
        JOINT LeftToeBase
        {
          OFFSET 0.346054 -6.02161 12.8035
          CHANNELS 3 Zrotation Xrotation Yrotation
          End Site
          {
            OFFSET 0.134235 -1.35082 5.13018
          }
        }
      }
    }
  }
  JOINT RightUpLeg
  {
    OFFSET -4.94151 -1.41743 10.6446
    CHANNELS 3 Zrotation Xrotation Yrotation
    JOINT RightLeg
    {
      OFFSET -2.56294 -42.0364 -7.94377
      CHANNELS 3 Zrotation Xrotation Yrotation
      JOINT RightFoot
      {
        OFFSET -3.0952 -42.555 -4.02241
        CHANNELS 3 Zrotation Xrotation Yrotation
        JOINT RightToeBase
        {
          OFFSET -0.0828122 -6.13587 12.8035
          CHANNELS 3 Zrotation Xrotation Yrotation
          End Site
          {
            OFFSET -0.131328 -1.35082 5.13018
          }
        }
      }
    }
  }
}
MOTION
Frames:	10
Frame Time:	0.00833333
-64.0351 96.8364 54.0681 1.5028 -71.2462 -87.7825 -70.1915 0 88.8779 70.0871 70.5719 20.6515 -10.597 21.2202 2.2209 -173.982 23.4807 173.264 -155.168 62.3814 -178.475 -6.2808 13.2654 32.225 99.3689 79.304 -22.228 28.7596 29.4699 -46.1336 -0.740979 0.00944829 2.17269 -6.94038 -18.0724 -29.2104 132.583 -81.4738 54.9183 19.4457 -21.2356 44.3187 -0.00509184 -0.00656454 -0.84628 -54.0357 2.57309 98.8642 -0.588579 26.5243 -7.06139 4.06379 -10.7089 -1.07967 -0.269975 -0.223452 1.86047 -55.9615 0.0626409 81.4502 1.92835 20.9813 4.5208 -8.05404 -7.13365 1.24758 1.15222 -3.96681 -5.26997 
-64.0282 96.8388 54.0658 1.65208 -71.2704 -87.6434 -70.1915 0 88.8779 70.1306 70.5767 20.5668 -10.6111 21.2169 2.2331 -173.992 23.4984 173.244 -155.147 62.3917 -178.54 -6.2711 13.2214 32.1825 99.2037 79.3094 -22.0717 28.7665 29.5291 -46.1151 -0.731031 0.00951004 2.16446 -6.93161 -18.0684 -29.1879 133.021 -81.4835 55.3341 19.4128 -21.2065 44.3037 -0.00642834 -0.00657413 -0.848849 -54.0542 2.5237 98.8387 -0.551858 26.5185 -7.00696 4.06451 -10.6964 -1.07917 -0.29357 -0.156214 1.81737 -55.9806 0.0417703 81.4266 1.96288 20.9862 4.73821 -8.47894 -6.8615 1.27323 1.25891 -4.51 -5.8446 
-64.0227 96.8421 54.0633 1.71706 -71.2926 -87.5872 -70.1915 0 88.8779 70.1873 70.5877 20.4846 -10.6242 21.2195 2.23885 -174.01 23.5065 173.232 -155.135 62.3941 -178.594 -6.26048 13.1763 32.1425 99.0915 79.3115 -21.9644 28.7665 29.5561 -46.1044 -0.728097 0.00952486 2.16282 -6.92142 -18.062 -29.1634 133.26 -81.4849 55.5576 19.4007 -21.1968 44.2967 -0.00644294 -0.00657575 -0.84892 -54.0741 2.49658 98.8285 -0.53561 26.5137 -6.97397 4.07269 -10.6756 -1.07859 -0.292193 -0.148776 1.79226 -56.0014 0.0268645 81.4108 1.98333 20.9857 4.86801 -8.71679 -6.70368 1.28732 1.31409 -4.827 -6.16773 
-64.0211 96.8449 54.0612 1.64265 -71.3163 -87.6709 -70.1915 0 88.8779 70.2757 70.6119 20.394 -10.6377 21.2339 2.23343 -174.039 23.4992 173.226 -155.133 62.3831 -178.631 -6.25454 13.1539 32.127 99.0579 79.309 -21.9292 28.7548 29.5342 -46.1051 -0.736622 0.00946182 2.1722 -6.91693 -18.0618 -29.1517 133.206 -81.4736 55.5012 19.424 -21.2217 44.3015 -0.00410494 -0.00656342 -0.844551 -54.1012 2.50185 98.8448 -0.554257 26.5106 -6.98851 4.11236 -10.6105 -1.07707 -0.235197 -0.284887 1.83427 -56.0303 0.0182016 81.4042 1.98512 20.9763 4.88451 -8.68617 -6.7089 1.28475 1.30959 -4.82428 -6.14484 
-64.0259 96.8481 54.0609 1.48235 -71.342 -87.8414 -70.1915 0 88.8779 70.3933 70.6451 20.2898 -10.6534 21.2567 2.21809 -174.074 23.4814 173.223 -155.136 62.3621 -178.661 -6.2555 13.1662 32.1501 99.0789 79.3051 -21.9455 28.7378 29.483 -46.1143 -0.752375 0.00934973 2.18846 -6.91996 -18.0688 -29.1566 132.98 -81.4529 55.2782 19.4717 -21.2687 44.3163 -0.000880499 -0.006545 -0.838472 -54.1336 2.52556 98.8767 -0.593104 26.5077 -7.02982 4.17069 -10.5161 -1.07487 -0.14158 -0.512446 1.91572 -56.065 0.0123142 81.4026 1.97628 20.9617 4.83334 -8.49658 -6.80884 1.27222 1.26939 -4.63696 -5.91145 
-64.0352 96.8519 54.0615 1.31896 -71.3612 -88.0115 -70.1915 0 88.8779 70.5004 70.6751 20.2003 -10.6665 21.2776 2.20249 -174.113 23.462 173.226 -155.143 62.3407 -178.686 -6.26014 13.1987 32.1973 99.1151 79.3004 -21.9775 28.7216 29.4252 -46.126 -0.768533 0.00923653 2.20471 -6.92674 -18.0789 -29.1703 132.697 -81.4309 55.0005 19.5188 -21.3131 44.3336 0.00201089 -0.00652804 -0.833009 -54.1595 2.55505 98.9079 -0.63075 26.5051 -7.05475 4.20318 -10.4625 -1.07374 -0.0662525 -0.682096 1.94684 -56.0927 0.0113836 81.4059 1.96116 20.9475 4.738 -8.24872 -6.94512 1.25622 1.21087 -4.37652 -5.57644 
-64.045 96.8545 54.0609 1.23581 -71.366 -88.0934 -70.1915 0 88.8779 70.557 70.6892 20.1547 -10.672 21.2862 2.19631 -174.157 23.4501 173.238 -155.153 62.3287 -178.709 -6.26585 13.2352 32.2475 99.1271 79.2957 -21.9893 28.7126 29.3833 -46.1345 -0.77827 0.00917021 2.21408 -6.93599 -18.0931 -29.1899 132.472 -81.4159 54.778 19.5403 -21.3301 44.3457 0.00334976 -0.00652011 -0.830488 -54.167 2.57746 98.9225 -0.645789 26.5024 -7.02016 4.16538 -10.5194 -1.07541 -0.0651851 -0.64452 1.83776 -56.1005 0.0175738 81.414 1.94416 20.9389 4.62204 -8.04322 -7.05937 1.24322 1.15412 -4.15484 -5.24829 
-64.051 96.8542 54.057 1.27907 -71.3484 -88.0341 -70.1915 0 88.8779 70.5421 70.6779 20.1698 -10.6658 21.2725 2.20741 -174.215 23.4481 173.271 -155.175 62.3305 -178.73 -6.26996 13.2594 32.279 99.1077 79.2897 -21.9745 28.7117 29.3595 -46.1368 -0.777768 0.00917915 2.21239 -6.94641 -18.1125 -29.2123 132.285 -81.4106 54.5921 19.522 -21.3041 44.3498 0.00263182 -0.00652425 -0.831884 -54.1469 2.59364 98.9128 -0.626828 26.4978 -6.87411 4.00182 -10.7754 -1.08226 -0.184917 -0.246473 1.45569 -56.0782 0.0380997 81.4317 1.92036 20.9386 4.4539 -7.87295 -7.15506 1.23302 1.09473 -3.96202 -4.88677 
-64.052 96.8484 54.0473 1.39606 -71.3147 -87.8906 -70.1915 0 88.8779 70.4806 70.6499 20.2271 -10.6513 21.2444 2.22887 -174.286 23.4512 173.319 -155.206 62.3403 -178.747 -6.27375 13.2709 32.2872 99.0766 79.2826 -21.9511 28.7159 29.3431 -46.1366 -0.771333 0.00923258 2.20409 -6.96119 -18.1443 -29.2473 132.092 -81.4105 54.3995 19.4798 -21.2514 44.3503 0.000567173 -0.00653608 -0.835838 -54.1075 2.6089 98.8883 -0.587111 26.4919 -6.65311 3.75065 -11.1698 -1.09279 -0.375139 0.394847 0.884982 -56.0348 0.0694447 81.4577 1.88949 20.943 4.23361 -7.69555 -7.25698 1.2228 1.02367 -3.75138 -4.45718 
-64.0503 96.8388 54.0337 1.5225 -71.278 -87.739 -70.1915 0 88.8779 70.4006 70.6205 20.3027 -10.6356 21.2184 2.2482 -174.345 23.4576 173.362 -155.23 62.3527 -178.762 -6.27796 13.277 32.2831 99.0357 79.2771 -21.9201 28.7253 29.3368 -46.1375 -0.764329 0.00928967 2.19522 -6.97989 -18.1857 -29.293 131.966 -81.4132 54.2721 19.4338 -21.1946 44.35 -0.00224216 -0.00655205 -0.841177 -54.0633 2.61696 98.8595 -0.54226 26.4879 -6.44666 3.50787 -11.5492 -1.10286 -0.555997 1.02276 0.361234 -55.9868 0.0978241 81.482 1.86291 20.9491 4.0321 -7.55875 -7.33872 1.21515 0.95973 -3.5805 -4.07575 
